<?xml version="1.0" encoding="utf-8"?><svg viewBox="0 0 100 100" xmlns="http://www.w3.org/2000/svg" width="198px" height="198px" xmlns:xlink="http://www.w3.org/1999/xlink" style="width:100%;height:100%;background-size:initial;background-repeat-y:initial;background-repeat-x:initial;background-position-y:initial;background-position-x:initial;background-origin:initial;background-image:initial;background-color:rgb(0, 0, 0);background-clip:initial;background-attachment:initial;animation-play-state:paused" ><g class="ldl-scale" style="transform-origin:50% 50%;transform:rotate(0deg) scale(1.4, 1.4);animation-play-state:paused" ><g style="animation-play-state:paused" ><path stroke-miterlimit="10" stroke-linejoin="round" stroke-linecap="round" stroke-width="3" stroke="#849b87" fill="none" d="M43.412 62.538l.036-.523a1.83 1.83 0 0 0-.505-1.198l-4.74-4.971a1.831 1.831 0 0 0-1.326-.568h-2.825a1.293 1.293 0 0 1-1.293-1.293V51.95a4.8 4.8 0 0 0 2.753-4.339v-4.904a4.762 4.762 0 0 0-4.762-4.762h-3.224a4.762 4.762 0 0 0-4.762 4.762v4.904a4.8 4.8 0 0 0 2.753 4.339v2.034c0 .714-.579 1.293-1.293 1.293h-2.825c-.501 0-.98.205-1.326.568l-4.74 4.971a1.83 1.83 0 0 0-.505 1.198l.036.523" style="stroke:rgb(255, 255, 255);animation-play-state:paused" ></path>
<circle stroke-miterlimit="10" stroke-linejoin="round" stroke-linecap="round" stroke-width="3" stroke="#000" fill="none" r="19" cy="50" cx="29.138" style="stroke:rgb(255, 255, 255);animation-play-state:paused" ></circle></g>
<g style="animation-play-state:paused" ><path d="M57.748 50h32.114" stroke-miterlimit="10" stroke-linejoin="round" stroke-linecap="round" stroke-width="3" stroke="#000" fill="none" style="stroke:rgb(255, 255, 255);animation-play-state:paused" ></path>
<path d="M57.748 41h32.114" stroke-miterlimit="10" stroke-linejoin="round" stroke-linecap="round" stroke-width="3" stroke="#000" fill="none" style="stroke:rgb(255, 255, 255);animation-play-state:paused" ></path>
<path d="M57.748 59h19.114" stroke-miterlimit="10" stroke-linejoin="round" stroke-linecap="round" stroke-width="3" stroke="#000" fill="none" style="stroke:rgb(255, 255, 255);animation-play-state:paused" ></path></g>
<metadata xmlns:d="https://loading.io/stock/" style="animation-play-state:paused" ><d:name style="animation-play-state:paused" >profile</d:name>


<d:tags style="animation-play-state:paused" >profile,namecard,business card,portfolio,self introduction,brief,user info</d:tags>


<d:license style="animation-play-state:paused" >by</d:license>


<d:slug style="animation-play-state:paused" >8jlasu</d:slug></metadata></g><!-- generated by https://loading.io/ --></svg>